<?xml version="1.0" encoding="utf-8"?>
<svg version="1.1" id="Layer_1" xmlns="http://www.w3.org/2000/svg" xmlns:xlink="http://www.w3.org/1999/xlink" x="0px" y="0px"
	 viewBox="0 0 2000 2000" style="enable-background:new 0 0 2000 2000;" xml:space="preserve">
<g>
	<path fill="#87006d" d="M1333.2,1625.9c76,92.8,175.1,118.8,288.4,106.2c-284.4,251.4-766.3,329.8-1158,65.8
		C56.1,1523.4-76.1,993,145.8,562.7C372.1,123.6,877.2-62.1,1321.2,96.7c230.4,82.4,404.9,233.1,522.2,447.7
		c102.2,186.8,134.4,387,105.4,597.5c-3.3-11.2-6.4-22.6-10.1-33.7c-23.8-72.6-61-137.1-116.2-190.4
		c-52.7-50.9-114.9-83.6-187.2-96.5c-27-4.8-54.2-6.9-81.5-5.1c-73.4,4.9-138.7,30.2-194.5,78.7c-4.6,4-9,8.4-13.4,12.8
		c-4.2,4.2-8.3,8.7-13,13.7c0-2.6,0-4.5,0-6.5c0-229.5,0-459,0-688.5c0-1.8,0.4-3.8-0.1-5.5c-0.5-1.5-2-3-3.4-3.7
		c-1.4-0.6-3.3-0.2-4.9-0.2c-76.7,0-153.3,0-230,0c-1.2,0-2.3,0.1-3.5,0c-3.5-0.2-5.4,1.1-5,4.9c0.1,1.2,0,2.3,0,3.5
		c0,491.3,0,982.6,0,1474c0,8.2,0,8.3,8.2,8.3c77,0,154,0,231,0c7.8,0,7.8,0,7.8-7.6c0-22.3,0-44.7,0-67
		C1332.8,1631.1,1333,1629.1,1333.2,1625.9z M1021.8,1126.9c0-2.1,0-4.1,0-6.1c0-57.2-0.1-114.3,0.2-171.5c0-6.6-1.9-10.5-7.4-14.2
		c-83.1-55.1-173.9-82.1-273.9-76.5c-24.5,1.3-48.7,4.3-72.5,10c-131.4,31.1-230.4,105.2-294,224.7
		c-37.9,71.3-52.9,148.2-47.3,228.7c1.5,21.3,3.9,42.8,8,63.7c18.7,94.7,63.8,174.6,136.7,238c77.6,67.5,169.1,100.4,271.1,105.7
		c17.7,0.9,35.6-0.2,53.4-0.8c24.3-0.9,48.3-4.9,71.9-10.6c55.6-13.3,106.2-37.6,153.7-68.9c4.3-2.8,5.9-5.8,5.9-10.9
		c-0.2-58-0.1-116-0.1-174c0-1.3,0.2-2.7-0.1-4c-0.3-1.3-1-3.4-1.9-3.6c-1.3-0.3-3.1,0.6-4.3,1.4c-1.1,0.7-1.7,2-2.6,3
		c-14.3,16-27.8,32.8-43.1,47.9c-52.5,51.7-115.4,81.9-189.3,87.9c-27.7,2.2-55.1,1.9-82.5-3c-68.8-12.4-124.5-46.5-167.2-101.6
		c-40.1-51.7-60.3-111.1-64.4-175.9c-1.4-21.6-0.3-43.7,2-65.3c3.8-34.8,13.7-68.2,29.8-99.5c49.9-97.1,128.7-152.3,237.9-161.7
		c29.7-2.6,59.5,0.1,88.7,7.2c51.6,12.6,96.2,38.1,134.5,74.3c17.3,16.3,32.6,34.7,48.7,52.2
		C1015.8,1125.9,1017.3,1128.9,1021.8,1126.9z"/>
	<path fill="#87006d" d="M1308.3,1281c1.3-66.6,18-121.4,54.5-169.5c27.9-36.7,63.6-62.6,109.3-72.2c58.4-12.3,111.1,0.8,156.5,39.7
		c44.4,38.1,68.7,87.8,80.1,144.4c3.9,19.5,6,39.2,4.9,59c-4,73.6-28.8,138.1-84.5,188.4c-27.2,24.6-59.3,39.5-95.7,43.6
		c-62.6,7-115-14-157.3-60.1c-34.7-37.7-54.6-82.8-63.3-133C1310.2,1306,1309.3,1290.2,1308.3,1281z"/>
</g>
</svg>
